<?xml version="1.0" standalone="no"?>
<!DOCTYPE svg PUBLIC "-//W3C//DTD SVG 20010904//EN"
 "http://www.w3.org/TR/2001/REC-SVG-20010904/DTD/svg10.dtd">
<svg version="1.0" xmlns="http://www.w3.org/2000/svg"
 width="600.000000pt" height="600.000000pt" viewBox="0 0 600.000000 600.000000"
 preserveAspectRatio="xMidYMid meet">
<metadata>
Created by potrace 1.16, written by Peter Selinger 2001-2019
</metadata>
<g transform="translate(0.000000,600.000000) scale(0.100000,-0.100000)"
fill="#000000" stroke="none">
<path d="M0 3000 l0 -3000 3000 0 3000 0 0 3000 0 3000 -3000 0 -3000 0 0
-3000z m3394 2593 c37 -8 66 -32 66 -54 0 -14 -6 -16 -35 -9 -20 4 -35 4 -35
-1 0 -5 7 -9 16 -9 9 0 12 -5 8 -12 -4 -6 -3 -8 4 -5 13 9 44 -2 37 -14 -3 -4
-12 -6 -20 -2 -8 3 -15 0 -15 -5 0 -7 -10 -7 -32 0 -42 14 -108 18 -108 8 0
-5 5 -10 11 -12 6 -2 -14 -4 -44 -4 -31 0 -53 4 -51 8 3 4 21 8 40 8 19 0 34
4 34 9 0 15 -83 19 -119 5 -18 -8 -48 -14 -65 -14 -29 1 -27 2 19 21 28 10 56
17 63 14 6 -2 12 0 12 5 0 15 30 12 31 -2 0 -7 4 -4 9 7 7 18 8 19 15 3 10
-25 24 -23 18 2 -4 14 -14 20 -35 20 -19 0 -28 4 -25 13 2 6 15 11 28 10 65
-6 69 -9 47 -32 -11 -11 -10 -13 5 -8 9 4 17 2 17 -4 0 -5 11 -7 24 -3 13 3
27 1 31 -6 5 -8 12 -6 26 6 18 16 17 40 -2 29 -5 -3 -6 0 -3 8 3 10 -5 19 -23
26 -30 12 -32 12 51 -6z m-553 -1200 c0 -11 3 -13 6 -5 2 6 9 9 14 6 6 -3 17
0 25 7 15 13 26 5 37 -26 2 -6 17 -5 40 2 40 12 42 1 4 -26 -14 -10 -16 -16
-7 -25 8 -8 15 -6 26 8 8 11 14 15 14 9 0 -7 -5 -15 -11 -19 -6 -3 -9 -15 -6
-25 4 -13 0 -19 -11 -20 -14 0 -13 -2 3 -9 19 -8 19 -9 -2 -9 -12 -1 -24 -7
-27 -13 -5 -10 -7 -10 -12 0 -3 6 -12 12 -19 12 -7 0 -16 -6 -19 -12 -3 -7 -4
-1 -2 15 3 22 -1 27 -18 28 -20 2 -20 2 2 6 14 3 22 12 22 24 0 16 -5 19 -20
14 -31 -10 -110 24 -110 47 0 15 5 18 19 13 11 -3 22 -1 26 5 10 16 25 12 26
-7z m394 -61 c-3 -9 1 -12 13 -8 9 3 23 2 30 -3 10 -6 10 -10 -2 -21 -9 -7
-13 -17 -10 -22 4 -5 12 1 18 14 7 12 18 22 25 20 6 -1 14 5 17 13 7 17 34 21
34 5 0 -5 -5 -10 -12 -10 -6 0 -1 -8 10 -19 25 -21 28 -32 10 -28 -7 1 -12 -4
-10 -10 1 -7 -2 -13 -7 -13 -5 0 -12 -8 -15 -17 -3 -10 -17 -30 -31 -45 -15
-17 -20 -28 -13 -28 10 0 10 -2 -1 -9 -8 -5 -11 -16 -6 -30 6 -20 3 -21 -44
-21 -40 0 -51 3 -51 16 0 13 -3 14 -15 4 -12 -10 -18 -8 -35 11 -10 13 -19 27
-20 31 0 3 -13 9 -30 13 -38 8 -46 22 -26 44 9 10 16 22 16 28 0 15 24 23 48
17 13 -4 22 1 26 13 6 14 5 16 -5 6 -20 -20 -31 -15 -19 8 6 11 19 19 28 18
41 -4 54 1 50 19 -4 12 1 18 14 18 11 0 17 -5 13 -14z m-874 -11 c-6 -4 4 -15
24 -25 20 -11 32 -24 28 -30 -4 -6 2 -4 12 4 14 11 19 12 22 2 3 -6 9 -10 14
-6 5 3 9 -2 9 -10 0 -9 5 -16 11 -16 5 0 8 4 4 9 -3 5 -1 12 4 16 6 3 8 -3 6
-14 -2 -14 8 -27 38 -47 55 -36 96 -81 94 -105 -2 -25 -21 -24 -110 6 -41 13
-115 29 -165 35 -49 5 -101 14 -113 18 -23 9 -23 9 6 23 34 17 41 32 22 50 -7
8 -16 24 -19 37 -5 19 -4 21 8 11 7 -6 11 -15 8 -20 -3 -5 -1 -9 4 -9 18 0 21
29 5 38 -24 14 -5 35 25 29 15 -3 32 1 40 9 7 8 18 11 24 8 7 -4 7 -9 -1 -13z
m1489 -220 c-7 -14 -7 -21 0 -21 5 0 10 -6 10 -14 0 -8 7 -16 15 -20 17 -6 21
-27 4 -23 -6 1 -13 -3 -15 -8 -3 -6 15 -19 39 -29 24 -10 51 -26 60 -37 19
-22 17 -22 -38 -9 -60 15 -205 39 -245 41 -19 1 -27 3 -17 6 9 2 17 11 17 20
0 13 -9 15 -50 11 -41 -4 -48 -3 -39 8 6 8 17 14 24 14 6 0 20 9 29 19 13 15
26 18 57 14 24 -4 39 -2 39 5 0 6 9 9 19 7 11 -2 22 3 25 12 6 14 8 14 21 -3
11 -15 15 -16 16 -4 1 8 1 18 0 22 0 4 6 5 14 2 8 -4 15 -1 15 7 0 7 3 10 6 7
3 -4 1 -16 -6 -27z m-783 -637 c27 -17 53 -18 53 -3 0 8 4 8 15 -1 8 -6 18 -9
24 -6 14 9 63 -12 56 -24 -4 -6 -12 -4 -21 5 -19 19 -25 19 -18 0 4 -9 -6 -22
-29 -35 -36 -22 -61 -58 -32 -46 8 3 15 1 15 -5 0 -10 -42 -29 -66 -29 -8 0
-13 3 -13 8 4 22 -4 20 -27 -5 -20 -22 -23 -23 -15 -6 15 30 14 33 -9 33 -18
0 -25 -14 -21 -46 1 -7 -8 -14 -19 -17 -22 -6 -50 25 -50 55 0 9 -5 20 -11 23
-6 4 -8 13 -5 21 3 8 1 14 -4 14 -21 0 -9 31 23 60 29 28 36 30 82 25 28 -4
60 -13 72 -21z m198 -64 c4 -6 11 -8 16 -5 5 4 9 1 9 -5 0 -6 16 -27 35 -47
19 -20 35 -42 35 -49 0 -7 8 -29 17 -49 14 -29 15 -40 5 -55 -7 -11 -12 -27
-12 -37 0 -9 -3 -13 -7 -10 -3 4 -12 2 -19 -4 -19 -16 -30 16 -13 37 10 13 10
17 -1 24 -7 4 -10 15 -6 25 6 16 -36 80 -46 69 -3 -2 -11 2 -18 11 -7 8 -18
15 -25 15 -28 0 -35 25 -15 58 20 33 34 40 45 22z m235 -160 c8 0 23 -38 21
-53 -1 -5 9 -17 21 -27 17 -13 23 -29 23 -57 0 -33 3 -38 23 -36 24 3 28 -7
10 -25 -9 -9 -8 -12 4 -12 8 0 21 -6 27 -14 10 -11 7 -17 -10 -30 -21 -14 -24
-14 -40 2 -9 9 -15 20 -13 23 2 4 -3 9 -11 13 -9 3 -12 12 -8 22 5 13 2 15
-17 9 -16 -5 -21 -4 -18 6 3 8 -6 24 -20 35 -16 15 -25 34 -27 58 -1 20 2 36
6 36 5 0 6 7 3 15 -4 8 -3 27 2 43 5 20 8 23 11 10 3 -10 8 -18 13 -18z
m-1336 -515 c4 -15 0 -37 -8 -54 -9 -16 -12 -32 -8 -35 3 -4 -2 -4 -13 0 -16
6 -18 5 -7 -7 14 -16 16 -43 2 -34 -5 3 -10 -3 -10 -15 0 -12 -4 -18 -11 -15
-6 4 -13 -2 -16 -14 -3 -11 -9 -18 -14 -15 -5 3 -9 -1 -9 -8 0 -7 -9 -2 -19
11 -10 13 -23 21 -28 18 -10 -7 -14 10 -14 61 0 38 39 91 86 115 44 23 62 21
69 -8z m1393 -224 c7 -11 22 -21 33 -23 19 -3 31 -18 62 -81 9 -19 0 -114 -12
-122 -3 -2 -17 -1 -29 2 -16 4 -21 11 -18 25 5 17 2 19 -21 14 -15 -3 -21 -3
-14 0 19 9 14 78 -8 107 -12 14 -20 40 -20 61 0 40 9 46 27 17z m-753 -1226
c-4 -10 0 -15 11 -15 9 0 14 -4 10 -9 -3 -5 -1 -12 5 -16 5 -3 10 -1 10 4 0 6
9 11 20 11 11 0 20 -7 20 -15 0 -8 -7 -15 -15 -15 -8 0 -15 -4 -15 -10 0 -5
-11 -12 -25 -16 -30 -7 -33 -24 -5 -24 11 0 20 5 20 10 0 6 9 10 20 10 27 0
25 -16 -2 -25 -15 -4 -18 -8 -10 -12 8 -3 10 -9 3 -16 -5 -7 -9 -16 -8 -21 1
-6 -14 -14 -33 -19 -30 -8 -32 -10 -16 -19 12 -7 31 -7 57 0 28 7 39 7 39 -2
0 -14 -75 -22 -142 -15 -44 5 -51 26 -10 32 25 4 25 5 6 11 -25 9 -48 52 -34
61 6 4 10 11 10 16 0 6 -3 8 -8 5 -4 -2 -15 2 -25 9 -16 12 -16 14 -2 29 19
19 63 32 73 21 4 -4 1 -10 -5 -12 -27 -10 -12 -29 22 -30 33 -1 34 0 23 20 -7
12 -11 28 -10 35 2 6 -5 12 -15 13 -13 1 -10 3 7 9 14 4 26 8 27 9 1 1 0 -6
-3 -14z"/>
</g>
</svg>
